<?xml version="1.0" standalone="no"?>
<!DOCTYPE svg PUBLIC "-//W3C//DTD SVG 20010904//EN"
 "http://www.w3.org/TR/2001/REC-SVG-20010904/DTD/svg10.dtd">
<svg version="1.0" xmlns="http://www.w3.org/2000/svg"
 width="688.000000pt" height="688.000000pt" viewBox="0 0 688.000000 688.000000"
 preserveAspectRatio="xMidYMid meet">
<metadata>
Created by potrace 1.14, written by Peter Selinger 2001-2017
</metadata>
<g transform="translate(0.000000,688.000000) scale(0.100000,-0.100000)"
fill="#000000" stroke="none">
<path d="M1491 6790 c-84 -20 -209 -66 -232 -86 -8 -8 -19 -14 -24 -14 -15 0
-132 -89 -180 -137 -55 -56 -114 -133 -140 -183 -10 -19 -21 -37 -24 -40 -16
-13 -70 -173 -87 -260 -9 -47 -10 -236 -1 -285 59 -320 263 -571 556 -684 123
-48 198 -59 369 -56 83 2 152 2 152 0 0 -1 -26 -15 -57 -31 -154 -76 -489
-288 -618 -391 -6 -4 -28 -21 -50 -38 -45 -34 -44 -33 -180 -146 -225 -187
-429 -386 -660 -640 -79 -87 -107 -120 -149 -174 -22 -27 -42 -52 -46 -55 -3
-3 -24 -30 -48 -60 -23 -30 -49 -63 -58 -72 -16 -17 -16 -19 -1 -36 10 -10 17
-23 17 -29 0 -6 4 -13 8 -15 4 -1 23 -23 42 -48 19 -25 37 -47 40 -50 7 -7
103 -120 126 -149 17 -21 53 -62 147 -165 136 -148 396 -399 531 -511 27 -22
54 -45 60 -50 73 -69 260 -208 436 -325 192 -128 200 -133 330 -203 30 -16 56
-30 57 -31 1 -1 -39 -1 -90 0 -79 2 -146 -4 -232 -21 -76 -14 -196 -67 -295
-130 -67 -42 -191 -170 -244 -252 -25 -39 -46 -74 -46 -77 0 -3 -11 -29 -25
-58 -47 -102 -68 -213 -68 -353 1 -84 3 -111 17 -175 3 -14 8 -34 10 -45 20
-93 104 -253 180 -343 96 -114 251 -220 392 -266 106 -35 152 -41 294 -41 159
1 241 20 390 93 30 15 60 30 65 34 6 5 37 28 70 52 106 78 206 202 263 324 15
31 27 59 27 62 1 3 9 30 18 60 10 30 20 71 23 90 3 19 8 38 10 42 7 10 5 209
-1 238 -3 14 -8 41 -11 60 -13 97 -104 299 -163 360 -17 17 -50 89 -51 109 0
8 6 11 17 6 65 -25 318 -80 458 -100 118 -16 352 -22 465 -11 114 10 176 18
220 27 25 5 59 11 75 14 45 6 88 15 96 20 4 3 23 7 44 11 20 3 56 12 78 21 23
8 51 16 61 18 10 3 35 10 55 17 20 7 38 13 41 13 3 1 14 5 25 10 11 4 61 23
110 43 50 19 97 38 105 43 8 4 71 35 140 68 69 34 148 75 175 91 28 16 68 39
90 51 22 12 105 65 183 118 79 53 151 101 160 106 8 6 22 16 31 23 9 7 77 61
151 119 74 58 142 113 151 122 9 9 38 34 64 56 27 22 53 45 59 50 6 6 43 40
82 77 l71 66 55 -26 c57 -29 97 -45 138 -58 28 -9 32 -10 75 -18 17 -3 41 -8
55 -11 29 -7 213 -7 250 0 51 9 86 16 125 27 22 7 42 12 45 13 3 0 41 18 84
38 80 38 226 139 226 157 0 6 6 10 13 11 21 1 106 113 165 218 25 45 72 170
78 206 1 11 7 43 13 70 22 111 1 331 -40 430 -7 17 -13 32 -13 36 -2 9 -70
144 -76 149 -4 3 -20 25 -37 50 -38 54 -130 144 -198 192 -271 193 -644 214
-931 54 l-45 -25 -32 30 c-18 17 -59 54 -91 82 -33 29 -69 61 -80 72 -21 20
-132 113 -151 127 -5 4 -26 20 -45 36 -79 65 -221 168 -349 253 -75 49 -141
94 -148 99 -7 6 -14 10 -17 10 -2 0 -42 22 -88 48 -238 137 -525 260 -758 323
-25 7 -49 14 -55 15 -21 6 -151 35 -170 38 -11 2 -38 6 -60 10 -22 3 -58 8
-80 11 -22 2 -62 7 -90 10 -67 9 -323 9 -410 1 -162 -15 -366 -56 -535 -106
-45 -13 -50 -13 -50 3 0 35 25 92 67 153 99 145 152 283 169 438 3 28 7 53 10
58 3 4 1 8 -5 8 -7 0 -7 8 -1 24 5 13 6 26 4 29 -3 3 -7 29 -9 59 -7 115 -57
266 -128 382 -81 131 -225 261 -362 324 -65 31 -142 60 -180 67 -16 4 -41 9
-55 12 -65 14 -267 9 -339 -7z m1754 -1794 c67 -5 89 -8 165 -23 54 -10 54
-10 116 -28 33 -10 64 -18 69 -20 38 -9 193 -78 273 -122 144 -78 323 -224
438 -358 31 -37 132 -179 157 -220 18 -31 91 -176 93 -185 0 -3 6 -18 13 -35
25 -58 40 -105 34 -105 -3 0 -1 -6 4 -12 15 -20 49 -166 58 -255 l5 -42 -263
1 c-248 0 -265 1 -315 22 -72 31 -117 77 -164 171 -130 257 -309 416 -553 490
-98 29 -157 37 -260 34 -277 -6 -322 11 -413 159 -17 29 -32 55 -32 58 0 3
-13 24 -29 47 -16 23 -29 45 -30 50 0 4 -7 17 -15 30 -44 71 -126 220 -122
224 2 2 50 20 107 39 111 38 244 68 349 78 35 4 65 8 66 9 4 4 179 -1 249 -7z
m-1050 -294 c11 -8 48 -71 67 -114 7 -16 16 -28 20 -28 4 0 8 -5 8 -11 0 -6
32 -65 71 -131 39 -66 80 -141 92 -167 39 -88 21 -204 -46 -293 -57 -75 -126
-215 -143 -290 -2 -10 -6 -28 -9 -40 -21 -92 -27 -271 -10 -348 4 -19 8 -42 9
-50 6 -45 19 -91 27 -96 5 -3 9 -12 9 -21 0 -18 61 -146 72 -151 5 -2 8 -8 8
-14 0 -6 16 -32 35 -58 90 -122 92 -228 9 -370 -19 -33 -34 -63 -34 -66 1 -4
-2 -10 -7 -13 -8 -5 -44 -64 -78 -126 -64 -118 -109 -185 -119 -177 -139 104
-248 212 -341 337 -16 22 -32 42 -35 45 -5 5 -47 73 -80 130 -49 87 -148 320
-135 320 2 0 -3 16 -11 35 -8 20 -16 48 -18 63 -2 15 -6 38 -9 52 -18 76 -39
343 -29 363 2 5 6 36 7 70 4 65 11 128 19 162 19 87 29 123 52 196 90 286 279
559 519 750 65 52 65 52 80 41z m2475 -1454 c0 -33 -27 -174 -45 -238 -9 -30
-18 -62 -20 -71 -4 -19 -55 -147 -79 -199 -99 -213 -280 -433 -478 -579 -46
-34 -87 -65 -93 -69 -5 -5 -35 -21 -65 -37 -30 -16 -62 -34 -70 -41 -40 -31
-310 -126 -399 -140 -14 -2 -35 -6 -47 -9 -91 -20 -370 -27 -488 -11 -114 15
-356 83 -405 115 -11 7 -12 13 -4 23 10 12 39 64 79 138 11 19 22 37 25 40 4
3 19 30 35 60 15 30 31 57 34 60 3 3 23 35 44 73 67 121 154 180 262 177 250
-7 304 -3 414 31 71 21 250 107 250 120 0 4 8 10 18 14 28 8 159 141 202 205
43 63 100 173 100 193 0 12 25 48 66 93 11 13 45 35 74 48 52 24 58 25 322 26
l268 1 0 -23z"/>
</g>
</svg>
