<?xml version="1.0" standalone="no"?>
<!DOCTYPE svg PUBLIC "-//W3C//DTD SVG 20010904//EN"
 "http://www.w3.org/TR/2001/REC-SVG-20010904/DTD/svg10.dtd">
<svg version="1.0" xmlns="http://www.w3.org/2000/svg"
 width="1024.000000pt" height="1024.000000pt" viewBox="0 0 1024.000000 1024.000000"
 preserveAspectRatio="xMidYMid meet">
<metadata>
Created by potrace 1.14, written by Peter Selinger 2001-2017
</metadata>
<g transform="translate(0.000000,1024.000000) scale(0.100000,-0.100000)"
fill="#000000" stroke="none">
<path d="M5501 8733 c-59 -3 -88 -8 -95 -19 -8 -10 -57 -18 -186 -30 -130 -11
-185 -20 -213 -35 -21 -10 -54 -19 -74 -19 -62 0 -167 -21 -201 -41 -18 -10
-52 -19 -75 -19 -63 -1 -124 -15 -142 -34 -17 -17 -22 -18 -128 -34 -38 -6
-76 -17 -86 -26 -9 -8 -50 -21 -91 -27 -48 -8 -79 -19 -87 -29 -8 -11 -40 -22
-89 -30 -49 -7 -83 -19 -93 -30 -10 -11 -45 -22 -91 -30 -52 -9 -79 -19 -88
-31 -8 -12 -25 -19 -45 -19 -44 0 -108 -24 -119 -44 -5 -9 -22 -16 -39 -16
-50 0 -119 -21 -129 -40 -6 -12 -27 -19 -64 -24 -33 -3 -70 -16 -91 -30 -22
-15 -57 -27 -94 -31 -35 -4 -62 -12 -65 -20 -2 -7 -40 -21 -82 -31 -43 -9 -91
-25 -108 -34 -17 -10 -65 -23 -106 -30 -44 -7 -82 -19 -91 -30 -12 -11 -40
-19 -88 -24 -44 -4 -90 -15 -119 -30 -33 -17 -77 -27 -147 -34 -59 -6 -115
-18 -135 -28 -45 -23 -215 -32 -620 -33 -411 0 -613 11 -665 37 -24 12 -78 24
-133 30 -68 7 -102 15 -122 31 -34 24 -118 37 -185 27 -41 -7 -48 -12 -61 -41
-18 -44 -18 -126 0 -169 10 -24 22 -35 45 -39 17 -4 42 -17 54 -30 12 -13 39
-27 61 -30 21 -3 49 -16 62 -28 14 -13 45 -25 74 -30 28 -4 63 -17 79 -29 19
-13 58 -24 113 -31 52 -7 87 -17 95 -26 8 -11 48 -20 129 -29 127 -15 155 -21
165 -37 8 -11 462 -40 629 -40 58 0 206 6 330 13 181 10 233 16 267 31 25 11
92 25 160 32 77 9 127 19 144 30 16 11 63 22 120 28 54 6 98 16 104 23 14 18
37 24 130 36 60 8 84 15 95 30 11 14 33 21 85 26 48 4 81 14 105 29 23 15 62
27 111 33 50 6 87 17 105 31 19 14 51 23 94 27 45 5 70 12 80 24 10 12 42 23
95 31 44 7 83 19 88 26 9 15 71 33 114 33 33 0 77 15 103 36 8 6 50 16 93 22
48 6 86 17 98 28 12 11 48 20 106 26 53 6 108 19 138 33 35 16 82 26 153 33
67 6 108 14 120 25 19 17 60 24 220 36 62 5 119 14 127 21 58 48 1231 52 1287
3 10 -9 55 -18 115 -24 125 -11 149 -16 198 -39 22 -11 74 -22 118 -26 42 -3
83 -11 90 -17 24 -23 63 -36 129 -42 44 -4 76 -13 92 -26 14 -11 51 -24 82
-29 75 -12 91 -18 98 -35 3 -8 26 -17 56 -21 28 -4 66 -16 83 -28 18 -12 58
-28 90 -36 33 -8 62 -21 67 -30 6 -11 27 -20 56 -24 27 -3 58 -16 76 -31 16
-14 41 -25 54 -25 29 0 75 -22 93 -44 8 -9 21 -16 30 -16 35 0 91 -22 91 -35
0 -15 13 -20 73 -31 21 -3 42 -14 47 -24 5 -10 32 -24 59 -31 29 -7 51 -19 54
-28 2 -9 25 -22 51 -30 25 -7 51 -22 57 -32 5 -11 18 -19 28 -19 10 0 35 -13
55 -29 20 -16 50 -32 66 -36 16 -3 35 -17 44 -30 10 -15 29 -25 57 -30 29 -5
43 -13 46 -26 3 -11 17 -22 32 -25 14 -4 36 -17 49 -31 13 -13 37 -27 53 -30
17 -3 37 -16 46 -29 8 -13 22 -24 30 -24 16 0 65 -30 76 -46 4 -7 20 -15 36
-19 16 -3 33 -16 39 -30 7 -14 19 -25 28 -25 9 0 32 -13 50 -30 19 -16 45 -32
59 -36 13 -3 27 -14 30 -24 3 -10 19 -23 36 -29 16 -5 32 -17 35 -26 3 -8 26
-24 50 -34 24 -11 47 -27 50 -35 5 -12 21 -16 66 -16 49 0 65 4 94 28 l34 27
0 87 0 86 -30 11 c-20 7 -30 17 -30 31 0 13 -9 24 -25 30 -14 5 -30 21 -35 35
-5 14 -16 25 -24 25 -9 0 -22 14 -31 30 -9 18 -23 30 -35 30 -13 0 -20 7 -20
18 0 23 -19 42 -42 42 -11 0 -18 7 -18 21 0 13 -10 23 -30 30 -16 6 -30 17
-30 25 0 7 -13 20 -30 29 -16 9 -30 22 -30 31 0 8 -11 19 -25 24 -14 5 -30 21
-37 35 -6 14 -19 25 -28 25 -9 0 -31 15 -49 34 -18 19 -44 37 -57 40 -12 3
-26 15 -29 26 -3 11 -18 23 -31 26 -14 4 -29 17 -34 30 -5 12 -19 24 -32 26
-13 2 -27 13 -33 26 -5 12 -15 22 -21 22 -19 0 -74 31 -74 41 0 6 -15 16 -34
24 -19 8 -37 23 -41 34 -3 10 -18 21 -34 24 -16 4 -45 20 -64 37 -19 16 -42
30 -51 30 -9 0 -21 11 -25 24 -6 14 -20 25 -38 29 -15 3 -38 15 -51 27 -12 12
-38 28 -57 36 -19 8 -35 20 -35 27 0 8 -23 20 -52 27 -31 9 -53 21 -55 31 -3
9 -22 22 -44 28 -21 6 -51 23 -65 36 -15 14 -37 25 -50 25 -13 0 -28 9 -34 20
-6 10 -29 25 -53 31 -23 7 -51 20 -62 30 -11 9 -38 23 -60 30 -22 7 -45 19
-52 27 -6 7 -38 22 -72 32 -33 10 -72 27 -85 38 -14 11 -46 23 -71 26 -28 5
-49 14 -55 26 -7 12 -26 20 -62 25 -55 8 -108 29 -108 44 0 5 -27 12 -60 16
-38 4 -73 16 -95 31 -26 17 -56 26 -106 30 -50 5 -76 13 -88 26 -12 12 -47 22
-116 33 -54 8 -105 21 -114 28 -10 9 -71 21 -158 30 -91 10 -154 22 -175 34
-30 16 -74 18 -523 19 -269 0 -528 -1 -574 -3z"/>
<path d="M5507 7451 c-48 -3 -91 -11 -95 -17 -11 -17 -43 -22 -217 -34 -117
-9 -168 -17 -190 -29 -17 -10 -74 -23 -135 -30 -68 -8 -109 -17 -116 -27 -7
-9 -51 -19 -118 -28 -75 -10 -111 -19 -119 -30 -8 -11 -44 -21 -105 -30 -67
-10 -99 -20 -112 -34 -13 -14 -38 -21 -90 -26 -54 -5 -76 -11 -89 -26 -11 -13
-39 -23 -91 -32 -50 -7 -79 -17 -88 -29 -8 -12 -37 -22 -87 -30 -47 -7 -75
-16 -75 -24 0 -16 -14 -21 -74 -30 -26 -4 -56 -16 -65 -26 -11 -12 -43 -24
-80 -30 -41 -8 -70 -19 -84 -34 -13 -13 -40 -25 -67 -29 -25 -4 -61 -17 -80
-30 -19 -12 -55 -26 -80 -30 -27 -4 -51 -15 -60 -27 -10 -12 -34 -22 -67 -28
-28 -4 -62 -17 -77 -28 -14 -12 -50 -27 -79 -33 -28 -7 -59 -20 -67 -30 -8 -9
-40 -22 -72 -29 -31 -7 -59 -18 -62 -26 -3 -8 -22 -17 -43 -20 -60 -11 -104
-28 -114 -46 -5 -11 -28 -19 -64 -24 -30 -3 -58 -12 -62 -19 -12 -20 -44 -33
-101 -41 -35 -5 -56 -13 -62 -25 -7 -13 -32 -21 -92 -30 -47 -8 -88 -19 -93
-27 -22 -29 -195 -45 -421 -40 l-211 6 -32 -33 c-29 -30 -32 -38 -29 -87 2
-44 7 -56 25 -64 12 -5 26 -19 32 -31 7 -15 22 -23 55 -28 24 -4 57 -17 72
-28 20 -17 53 -25 140 -35 70 -8 124 -19 140 -29 19 -13 64 -19 187 -26 127
-7 169 -14 201 -29 23 -11 78 -25 124 -31 45 -6 82 -15 82 -19 0 -12 68 -39
99 -39 40 0 71 -11 71 -25 0 -12 45 -28 113 -41 21 -3 42 -14 48 -25 5 -11 20
-19 33 -19 36 0 86 -20 96 -40 6 -11 27 -20 61 -24 39 -5 52 -12 56 -27 3 -10
15 -21 27 -23 68 -14 81 -19 93 -36 7 -10 35 -23 63 -30 30 -7 50 -18 50 -26
0 -8 23 -20 55 -29 30 -9 59 -24 64 -33 5 -10 30 -23 54 -29 30 -8 48 -19 52
-33 3 -11 14 -20 24 -20 25 0 81 -30 88 -46 3 -8 14 -14 25 -14 24 0 70 -23
87 -44 8 -9 24 -16 37 -16 12 0 30 -8 40 -17 22 -22 62 -43 82 -43 9 0 33 -12
53 -26 21 -14 57 -30 81 -35 23 -6 50 -18 60 -28 9 -10 38 -22 65 -25 26 -4
64 -18 83 -31 19 -13 59 -26 88 -30 33 -4 60 -15 71 -26 12 -13 42 -23 87 -30
38 -6 92 -21 119 -34 34 -15 78 -25 137 -30 63 -5 93 -12 108 -25 22 -19 54
-24 213 -36 59 -4 105 -13 135 -27 47 -22 52 -22 707 -22 656 1 660 1 723 23
39 14 97 24 155 28 120 7 214 23 227 39 7 8 49 15 113 20 102 6 149 17 177 41
8 7 35 14 60 16 35 2 45 -1 48 -13 2 -10 -5 -19 -17 -22 -12 -3 -25 -17 -31
-32 -6 -15 -19 -29 -29 -32 -11 -3 -24 -18 -30 -33 -5 -15 -18 -31 -29 -34
-11 -4 -23 -18 -26 -31 -4 -14 -13 -25 -20 -25 -8 0 -25 -17 -37 -37 -13 -21
-36 -50 -51 -65 -15 -14 -28 -31 -28 -36 0 -6 -9 -14 -21 -17 -11 -4 -25 -20
-31 -36 -5 -16 -17 -29 -25 -29 -8 0 -20 -13 -26 -30 -7 -18 -19 -30 -29 -30
-11 0 -23 -11 -28 -25 -5 -14 -21 -30 -35 -35 -15 -6 -25 -17 -25 -29 0 -12
-11 -23 -30 -30 -18 -6 -30 -17 -30 -28 0 -11 -13 -24 -30 -31 -18 -8 -30 -21
-30 -33 0 -10 -7 -19 -15 -19 -9 0 -24 -13 -33 -29 -9 -17 -25 -32 -34 -34
-10 -3 -22 -16 -27 -30 -6 -15 -19 -27 -33 -29 -15 -2 -24 -11 -26 -25 -2 -13
-14 -25 -33 -32 -18 -6 -29 -17 -29 -28 0 -11 -12 -23 -30 -30 -20 -8 -30 -18
-30 -32 0 -14 -6 -21 -18 -21 -23 0 -42 -19 -42 -41 0 -11 -9 -19 -22 -21 -13
-2 -29 -15 -36 -30 -7 -16 -20 -28 -28 -28 -8 0 -44 -29 -79 -65 -36 -36 -71
-65 -78 -65 -7 0 -23 -14 -35 -30 -13 -17 -29 -30 -37 -30 -8 0 -15 -7 -15
-16 0 -9 -14 -21 -30 -27 -17 -6 -33 -20 -36 -30 -3 -10 -17 -22 -30 -27 -13
-5 -29 -21 -34 -35 -6 -15 -17 -25 -29 -25 -11 0 -25 -9 -32 -21 -6 -11 -31
-30 -55 -40 -24 -11 -44 -26 -44 -33 0 -8 -13 -19 -30 -26 -16 -7 -32 -20 -35
-30 -3 -10 -17 -21 -31 -24 -13 -4 -30 -18 -36 -31 -6 -14 -17 -25 -23 -25
-19 0 -75 -31 -75 -41 0 -6 -15 -16 -34 -24 -19 -8 -37 -23 -41 -34 -3 -10
-18 -21 -34 -24 -16 -3 -31 -14 -33 -24 -3 -11 -22 -24 -46 -32 -23 -8 -49
-25 -57 -38 -9 -12 -24 -23 -35 -23 -11 0 -24 -9 -30 -20 -6 -11 -22 -23 -35
-26 -14 -3 -25 -10 -25 -15 0 -5 -8 -9 -19 -9 -10 0 -21 -9 -24 -20 -3 -13
-14 -20 -31 -20 -16 0 -32 -9 -42 -25 -10 -16 -33 -30 -59 -37 -25 -7 -45 -19
-51 -32 -6 -14 -23 -23 -51 -29 -27 -5 -47 -16 -57 -32 -9 -14 -26 -25 -37
-25 -12 0 -35 -11 -51 -26 -17 -14 -44 -28 -60 -31 -16 -3 -34 -14 -41 -23 -7
-10 -33 -23 -57 -30 -25 -6 -49 -17 -55 -24 -15 -19 -51 -36 -77 -36 -13 -1
-39 -14 -58 -30 -19 -17 -43 -30 -55 -30 -39 0 -95 -21 -95 -35 0 -14 -11 -18
-80 -29 -20 -4 -43 -15 -52 -25 -10 -12 -41 -23 -87 -31 -48 -8 -71 -16 -71
-26 0 -14 -4 -15 -105 -35 -33 -6 -67 -17 -76 -25 -8 -7 -48 -18 -88 -24 -100
-14 -123 -20 -143 -37 -11 -10 -55 -18 -125 -24 -115 -9 -154 -17 -164 -32
-13 -19 -196 -29 -514 -25 -284 3 -333 5 -355 19 -33 22 -61 28 -178 39 -59 5
-100 14 -107 22 -11 15 -67 33 -128 43 -21 3 -46 14 -57 25 -10 10 -36 21 -59
25 -24 4 -45 14 -51 25 -5 10 -32 24 -61 31 -33 9 -54 20 -57 31 -2 9 -17 20
-32 23 -15 3 -42 19 -61 36 -18 16 -41 29 -50 29 -10 0 -24 12 -31 28 -7 15
-23 28 -36 30 -13 2 -22 10 -22 21 0 11 -12 24 -30 31 -16 7 -30 20 -30 29 0
9 -13 22 -30 28 -19 7 -30 18 -30 31 0 10 -11 24 -25 30 -13 6 -27 22 -31 36
-3 13 -13 26 -23 29 -9 2 -23 23 -31 46 -7 23 -22 47 -31 52 -10 5 -23 28 -29
50 -6 22 -20 49 -30 59 -12 12 -23 43 -29 76 -5 33 -15 60 -24 65 -18 11 -26
44 -37 148 -4 42 -17 109 -29 148 -27 93 -26 124 4 220 13 43 27 108 30 146 5
51 11 70 25 77 11 6 23 31 31 64 7 35 18 56 28 59 9 2 23 23 31 46 7 23 22 47
32 52 10 5 25 23 33 39 9 17 22 30 30 30 7 0 17 9 20 20 4 11 18 26 33 34 15
8 40 26 55 40 15 14 38 26 50 26 12 0 30 11 42 25 15 19 36 27 85 35 36 5 70
16 75 24 26 35 285 44 285 10 0 -8 -11 -19 -25 -26 -14 -6 -27 -23 -30 -39 -4
-16 -10 -29 -14 -29 -3 0 -15 -17 -26 -37 -17 -31 -20 -56 -20 -165 0 -121 1
-130 22 -146 12 -9 27 -37 34 -61 8 -28 21 -47 36 -54 13 -5 23 -19 23 -29 0
-12 11 -23 29 -29 15 -6 33 -21 39 -34 7 -15 20 -25 32 -25 24 0 58 -18 80
-43 13 -16 32 -18 154 -18 105 0 141 3 149 14 19 22 65 47 86 47 12 0 23 11
30 30 6 19 17 30 29 30 13 0 22 9 26 25 4 14 17 31 30 36 18 8 25 22 30 55 3
25 17 65 31 90 33 59 37 180 6 208 -10 9 -24 43 -31 78 -7 40 -19 68 -35 82
-13 13 -29 35 -34 49 -6 15 -17 27 -25 27 -8 0 -19 14 -25 30 -6 19 -17 30
-28 30 -11 0 -23 12 -30 30 -7 19 -18 30 -31 30 -13 0 -22 9 -26 25 -5 18 -15
27 -36 32 -19 3 -30 12 -30 22 0 11 -15 21 -47 30 -27 7 -54 14 -60 17 -7 2
-13 10 -13 18 0 9 -15 17 -42 21 -70 11 -122 28 -135 45 -10 13 -47 15 -246
15 -224 0 -237 -1 -264 -21 -17 -12 -59 -27 -101 -34 -53 -9 -75 -17 -82 -31
-6 -11 -21 -19 -35 -19 -13 0 -27 -4 -30 -10 -3 -5 -15 -10 -27 -10 -11 0 -22
-8 -25 -19 -3 -11 -17 -21 -35 -25 -17 -3 -32 -14 -35 -24 -2 -11 -26 -28 -54
-39 -29 -13 -49 -28 -49 -37 0 -9 -12 -19 -26 -22 -14 -4 -30 -17 -35 -31 -5
-14 -18 -27 -29 -30 -11 -3 -22 -13 -25 -23 -3 -10 -21 -34 -40 -53 -19 -20
-35 -45 -35 -57 0 -12 -9 -24 -24 -30 -13 -5 -26 -20 -30 -36 -4 -15 -17 -41
-30 -58 -13 -17 -26 -43 -30 -58 -3 -15 -17 -43 -30 -62 -13 -19 -26 -59 -30
-88 -4 -29 -16 -68 -27 -86 -29 -50 -43 -289 -30 -528 8 -147 13 -190 26 -204
9 -10 22 -52 29 -93 8 -41 22 -88 33 -104 11 -15 23 -44 26 -63 8 -54 25 -90
42 -90 9 0 15 -9 15 -24 0 -39 21 -85 41 -91 10 -4 19 -15 19 -26 0 -10 8 -27
18 -37 25 -26 52 -69 52 -85 0 -8 11 -19 25 -25 13 -6 27 -23 31 -37 3 -14 13
-25 21 -25 8 0 19 -13 24 -29 6 -17 20 -32 34 -35 13 -3 25 -16 29 -30 3 -14
16 -26 30 -30 14 -3 26 -16 30 -31 4 -16 13 -25 26 -25 11 0 24 -12 32 -27 7
-15 24 -30 38 -33 16 -4 26 -14 28 -28 2 -13 10 -22 21 -22 10 0 32 -14 50
-30 17 -17 44 -33 60 -36 17 -4 33 -16 40 -30 7 -15 19 -24 34 -24 12 0 38
-13 57 -30 19 -16 45 -29 56 -30 12 0 27 -7 35 -16 17 -21 56 -40 99 -48 19
-3 44 -15 56 -27 11 -11 44 -23 73 -28 28 -4 57 -15 64 -24 8 -11 46 -22 112
-32 55 -9 107 -23 116 -31 9 -8 40 -17 70 -20 173 -15 265 -29 271 -38 21 -32
744 -32 766 0 8 11 186 34 270 34 33 0 67 7 92 20 23 12 84 26 145 34 67 9
112 20 124 30 10 9 52 20 97 27 51 7 86 17 99 29 12 11 48 23 88 30 42 6 75
18 87 30 10 10 36 22 57 25 73 12 84 16 101 35 10 12 35 22 65 26 29 4 53 14
60 25 7 10 35 24 63 31 27 7 59 20 72 30 13 9 47 24 75 32 29 8 60 24 69 36
10 11 27 20 37 20 28 0 74 22 89 42 7 10 23 18 35 18 13 0 38 13 57 30 20 16
47 29 63 30 15 0 27 5 27 10 0 15 61 50 87 50 13 0 24 8 28 20 4 14 22 25 52
33 27 7 52 21 61 34 8 13 21 23 30 23 8 0 30 12 49 26 19 14 46 29 61 33 15 4
31 17 37 29 6 14 25 27 47 33 37 10 68 32 68 50 0 5 13 9 29 9 20 0 30 6 34
19 3 11 22 27 42 36 21 8 49 26 63 40 14 14 32 25 42 25 9 0 22 11 28 25 7 15
20 25 32 25 11 0 26 11 35 24 8 13 33 31 55 41 22 10 42 26 45 36 3 10 16 19
28 21 12 2 27 13 32 26 6 13 22 26 37 29 15 3 30 13 33 23 3 9 23 25 45 35 22
10 47 28 55 41 9 13 24 24 35 24 12 0 24 10 30 24 4 13 20 26 34 30 17 4 26
13 26 26 0 15 9 22 30 27 20 4 32 13 36 28 3 13 16 26 29 29 13 3 36 19 52 35
16 15 38 31 50 35 12 4 25 16 28 27 4 12 20 25 36 31 18 6 29 17 29 28 0 11
12 22 30 29 17 5 30 17 30 26 0 8 11 20 25 25 14 5 30 21 35 35 6 15 17 25 29
25 11 0 23 9 26 21 4 11 18 24 32 30 14 5 27 18 30 30 3 11 18 26 34 35 16 8
29 21 29 30 0 8 12 19 26 24 14 6 28 18 31 28 2 9 17 25 34 34 16 9 29 24 29
33 0 8 7 15 15 15 9 0 24 13 33 30 9 16 23 30 30 30 7 0 21 13 30 29 9 17 25
32 35 35 10 2 21 14 24 26 3 12 17 26 30 31 14 5 27 17 30 27 2 9 17 25 34 34
16 9 29 23 29 30 0 7 10 18 23 23 12 6 26 19 31 31 5 11 19 25 30 30 12 5 25
19 31 31 5 12 17 24 27 26 10 3 22 16 27 30 6 14 19 28 30 32 12 3 21 14 21
24 0 22 19 41 42 41 11 0 18 7 18 20 0 12 12 26 30 35 18 9 30 23 30 36 0 11
10 23 24 28 13 5 26 19 29 31 3 12 15 24 26 27 11 3 23 15 27 26 4 11 20 35
36 51 16 17 36 43 44 59 8 15 20 27 27 27 7 0 18 14 24 31 7 17 17 28 22 24
18 -11 13 -73 -8 -94 -14 -14 -24 -49 -35 -121 -9 -63 -21 -109 -31 -120 -13
-14 -19 -52 -26 -161 -6 -93 -15 -154 -25 -174 -27 -52 -36 -234 -31 -620 4
-343 6 -374 25 -426 15 -40 24 -98 31 -209 6 -84 14 -156 19 -159 16 -10 31
-73 42 -176 7 -65 15 -104 25 -111 8 -6 20 -52 30 -115 10 -73 20 -108 32
-117 11 -8 19 -35 25 -84 4 -47 14 -82 27 -99 11 -15 25 -57 32 -93 6 -37 17
-72 23 -79 17 -17 34 -64 41 -115 5 -29 14 -48 30 -58 13 -9 25 -25 27 -37 6
-44 146 -44 175 -1 25 38 14 188 -17 240 -22 37 -24 54 -33 292 -7 174 -7 334
0 510 9 234 12 261 32 298 13 25 25 74 31 124 5 46 16 90 24 99 16 18 36 84
36 120 0 14 9 34 20 46 11 12 27 48 35 81 9 32 24 66 35 76 11 9 20 24 20 34
0 33 24 84 42 90 11 3 18 15 18 29 0 12 14 37 30 55 17 18 30 43 30 56 0 16 8
28 25 36 14 6 28 22 31 35 4 13 14 29 23 36 18 14 39 44 47 68 3 9 17 22 30
29 13 8 24 17 24 22 0 4 24 32 53 61 65 64 84 116 65 177 -11 35 -18 42 -53
51 -70 18 -75 20 -75 33 0 7 -23 19 -52 26 -33 9 -53 21 -56 32 -2 10 -15 21
-29 24 -13 4 -29 17 -34 30 -5 14 -20 29 -34 34 -16 6 -25 17 -25 31 0 12 -8
23 -19 26 -20 5 -41 49 -41 84 0 10 -9 24 -20 32 -28 20 -44 136 -37 275 6
102 9 116 32 143 14 17 25 41 25 54 0 23 23 55 40 55 4 0 11 11 14 25 3 13 23
37 43 52 20 15 49 40 66 56 16 15 40 27 52 27 13 0 25 7 28 15 8 20 72 45 118
45 22 0 61 10 87 23 42 20 62 22 192 22 109 -1 161 -6 210 -19 36 -10 94 -20
130 -23 63 -4 66 -3 103 30 32 30 37 41 37 77 0 66 -19 118 -45 124 -13 3 -25
16 -29 31 -4 14 -13 25 -20 25 -8 0 -45 29 -82 65 -38 36 -77 65 -86 65 -10 0
-24 14 -33 30 -9 18 -23 30 -36 30 -12 0 -23 10 -29 25 -5 14 -20 27 -35 31
-14 3 -25 13 -25 23 0 9 -13 22 -31 28 -17 7 -33 21 -36 32 -3 12 -11 21 -18
21 -21 0 -66 27 -81 49 -9 12 -24 21 -35 21 -11 0 -23 10 -29 24 -5 13 -22 28
-39 34 -17 6 -31 16 -31 22 0 6 -20 20 -44 31 -24 10 -51 30 -60 44 -9 14 -26
25 -37 25 -12 0 -23 8 -26 20 -3 11 -11 20 -19 20 -7 0 -29 14 -48 30 -18 17
-50 37 -70 45 -20 8 -36 21 -36 29 0 8 -12 17 -27 21 -15 3 -37 17 -50 31 -12
13 -36 27 -53 31 -21 4 -35 14 -41 29 -5 14 -17 24 -27 24 -11 0 -39 16 -63
35 -24 19 -54 35 -66 35 -16 0 -23 6 -23 20 0 11 -5 20 -12 20 -27 0 -98 34
-98 46 0 7 -17 18 -37 23 -21 6 -51 22 -67 36 -16 14 -40 25 -53 25 -13 0 -26
7 -30 15 -7 21 -55 45 -88 45 -16 0 -25 6 -25 16 0 16 -56 44 -90 44 -11 0
-23 7 -27 15 -6 17 -65 45 -94 45 -10 0 -20 9 -24 19 -4 13 -19 21 -52 26 -29
4 -53 15 -67 30 -14 15 -40 27 -65 31 -23 4 -59 18 -78 31 -20 14 -59 28 -87
33 -28 4 -52 13 -54 19 -5 15 -42 30 -106 42 -27 5 -54 16 -60 25 -13 17 -73
33 -123 34 -19 0 -41 8 -52 19 -13 13 -46 24 -101 32 -45 7 -90 20 -100 29
-13 12 -56 21 -137 29 -77 9 -134 20 -163 34 -43 20 -60 21 -470 23 -234 1
-465 -1 -513 -5z m-277 -546 c0 -21 -25 -68 -44 -84 -8 -7 -18 -25 -21 -41 -4
-16 -15 -40 -25 -53 -10 -13 -26 -60 -34 -106 -9 -45 -23 -92 -31 -104 -22
-31 -22 -263 0 -294 9 -12 23 -61 32 -109 10 -57 22 -92 34 -102 11 -9 19 -26
19 -37 0 -12 16 -44 35 -71 19 -27 35 -55 35 -62 0 -7 11 -18 25 -24 14 -6 25
-20 25 -30 0 -10 11 -24 25 -30 13 -6 27 -20 31 -30 3 -11 16 -24 29 -30 12
-5 28 -21 34 -34 6 -14 19 -24 31 -24 12 0 24 -9 30 -24 4 -13 20 -26 34 -30
13 -3 37 -17 53 -30 16 -14 43 -28 59 -32 16 -3 45 -17 64 -29 19 -13 58 -26
85 -30 28 -3 70 -16 95 -28 41 -20 60 -22 226 -22 155 0 185 2 200 16 17 15
46 23 162 45 12 2 22 10 22 18 0 8 20 19 48 26 26 7 54 20 63 30 8 9 36 27 62
38 26 12 47 25 47 31 0 5 12 16 28 23 15 7 31 23 37 36 5 12 18 22 28 22 11 0
22 11 28 30 6 16 18 32 27 35 10 3 26 24 36 48 11 23 28 48 38 55 10 7 18 21
18 31 0 10 11 30 25 44 18 17 29 44 37 87 7 39 18 69 32 81 20 19 21 31 24
208 4 182 -6 271 -28 271 -6 0 -10 9 -10 19 0 11 -4 23 -10 26 -5 3 -10 21
-10 38 0 48 -10 75 -29 80 -18 4 -36 71 -25 89 9 15 39 8 52 -12 9 -14 23 -20
50 -20 49 0 114 -19 127 -37 6 -8 31 -17 55 -19 56 -7 99 -23 122 -46 11 -11
33 -18 58 -18 25 0 46 -7 57 -18 19 -19 48 -32 119 -51 23 -6 44 -18 47 -25 3
-8 31 -19 61 -26 40 -8 57 -17 61 -31 4 -10 14 -19 23 -19 36 0 92 -22 92 -35
0 -15 13 -20 73 -31 22 -4 41 -14 45 -23 8 -23 23 -31 55 -31 35 0 67 -16 67
-34 0 -8 20 -19 47 -25 26 -7 53 -21 60 -31 7 -10 35 -23 62 -30 31 -7 51 -18
53 -28 3 -10 24 -23 50 -30 24 -7 52 -22 61 -33 9 -10 25 -19 34 -19 10 0 34
-14 53 -30 19 -16 45 -30 57 -30 13 0 30 -11 39 -25 11 -16 33 -29 61 -37 31
-7 48 -18 55 -34 8 -16 20 -24 37 -24 15 0 40 -13 59 -30 18 -16 42 -30 53
-30 10 0 24 -9 31 -20 7 -11 34 -27 59 -35 30 -10 49 -23 52 -35 3 -11 14 -20
24 -20 29 0 72 -23 78 -42 3 -9 20 -21 37 -27 54 -19 19 -31 -103 -36 -313
-12 -374 -17 -417 -35 -23 -11 -88 -25 -144 -32 -69 -8 -108 -18 -119 -29 -10
-10 -42 -19 -80 -24 -75 -8 -130 -23 -144 -40 -5 -7 -45 -17 -88 -23 -46 -6
-86 -17 -97 -27 -10 -9 -54 -22 -98 -29 -44 -7 -95 -22 -114 -34 -23 -14 -59
-24 -109 -28 -41 -4 -79 -12 -84 -19 -14 -17 -73 -32 -160 -40 -38 -4 -81 -14
-95 -23 -15 -10 -81 -23 -169 -34 -79 -9 -147 -22 -151 -28 -7 -12 -118 -25
-290 -35 -110 -6 -133 -10 -225 -35 -26 -6 -213 -10 -520 -11 -445 0 -486 1
-555 20 -41 10 -145 24 -230 31 -107 8 -167 17 -195 30 -22 10 -87 24 -145 30
-69 9 -109 18 -116 28 -6 8 -45 20 -90 27 -87 14 -134 30 -134 44 0 5 -25 12
-56 16 -32 4 -70 16 -89 30 -19 12 -56 26 -82 30 -30 4 -55 15 -69 30 -12 13
-39 26 -64 30 -24 4 -51 15 -59 25 -9 10 -38 23 -64 30 -27 7 -51 19 -54 26
-3 8 -28 21 -56 29 -28 8 -59 24 -69 35 -10 10 -34 22 -54 26 -21 4 -41 16
-50 30 -11 16 -29 25 -59 30 -30 4 -49 13 -59 29 -10 15 -30 26 -55 30 -25 4
-45 15 -55 30 -8 13 -29 25 -49 29 -19 3 -44 17 -57 31 -13 14 -31 25 -41 25
-10 0 -30 11 -46 24 -16 14 -43 28 -59 32 -16 3 -40 17 -54 29 -14 13 -41 26
-60 30 -19 4 -45 16 -56 27 -12 10 -45 25 -74 33 -29 8 -61 22 -72 32 -11 10
-45 23 -76 28 -73 13 -78 32 -21 74 30 22 54 31 80 31 41 0 80 14 118 42 13
10 41 18 62 18 25 0 55 10 87 30 33 20 62 30 89 30 24 0 50 8 64 18 30 23 83
42 119 42 15 0 39 9 53 21 15 11 55 25 89 31 38 7 69 19 78 29 10 12 41 22 89
30 43 6 86 19 102 31 15 11 52 23 86 27 36 4 77 17 105 34 32 18 61 27 91 27
48 0 107 17 107 31 0 12 68 29 118 29 26 0 62 10 92 25 34 17 78 28 141 35 59
6 98 15 109 25 12 11 55 20 132 29 62 7 129 20 148 29 45 21 67 24 168 26 68
1 82 -2 82 -14z"/>
</g>
</svg>
