<?xml version="1.0" encoding="UTF-8"?>
<svg id="Layer_2" data-name="Layer 2" xmlns="http://www.w3.org/2000/svg" viewBox="0 0 92.67 113.66">
  <g id="Layer_1-2" data-name="Layer 1">
    <g>
      <path d="M44.06,18.12c-21.37,0-38.69,24.14-38.69,24.14,0,0,17.32,24.14,38.69,24.14s38.69-24.14,38.69-24.14c0,0-17.33-24.14-38.69-24.14ZM43.96,61.87c-10.87,0-19.69-8.82-19.69-19.7s8.82-19.69,19.69-19.69,19.7,8.82,19.7,19.69-8.82,19.7-19.7,19.7Z" style="fill: #bccccb; stroke-width: 0px;"/>
      <path d="M91.05,42.07c0,6.08-4.93,11.01-11,11.01-4.61,0-8.55-2.82-10.2-6.82-.55-1.33-1.84-2.2-3.28-2.2h-8.95c-1.3,0-2.47.72-3.07,1.85-.21.63-.49,1.24-.83,1.83-2.31,4-6.74,6-11.04,5.42-1.4-.2-2.78.48-3.49,1.71l-1.62,2.81-2.71,4.68c-.72,1.25-.62,2.8.26,3.94,2.64,3.43,3.11,8.25.81,12.24-3.04,5.26-9.78,7.07-15.04,4.03-5.26-3.04-7.07-9.77-4.03-15.04,2.31-4,6.74-6,11.04-5.41,1.4.19,2.78-.49,3.49-1.71l2.72-4.72h.01l1.6-2.78c.72-1.24.61-2.8-.26-3.94-1.36-1.77-2.15-3.91-2.26-6.12-.01-.02-.01-.04-.01-.07-.01-.01-.01-.03,0-.04-.01-.08-.01-.15-.01-.23-.01-.09-.01-.19-.01-.28v-.16c.01-.1.01-.2.01-.3s.01-.21.02-.31v-.08c0-.07,0-.14.01-.2v-.02c.02-.25.05-.51.09-.76.01-.05.02-.11.03-.17.04-.25.09-.5.15-.75.01-.05.03-.11.04-.16.07-.27.15-.53.24-.79.07-.23.16-.46.26-.68,0-.02.01-.04.02-.06.05-.13.11-.27.18-.4.02-.07.05-.13.09-.19.06-.13.12-.25.19-.37.1-.19.2-.37.32-.55.08-.12.15-.24.23-.36.09-.15.19-.29.31-.43.03-.05.06-.1.1-.15.87-1.14.98-2.69.26-3.93l-2.01-3.48-2.46-4.28c-.71-1.22-2.09-1.9-3.49-1.71-4.31.58-8.73-1.42-11.05-5.42-3.03-5.26-1.22-12,4.04-15.04,5.26-3.04,12-1.23,15.04,4.03,2.3,3.99,1.83,8.81-.82,12.25-.87,1.13-.97,2.69-.26,3.93l2.45,4.24,2.03,3.52c1.34,2.31,3.64,1.65,4.99,1.65,1.06,0,2.08.09,3.2.44.87.26,1.71.63,2.49,1.11.18.1.35.21.52.33.17.11.33.23.49.35.13.1.26.21.39.32.07.05.13.11.2.18.12.09.23.2.34.3l.19.19c.12.12.23.24.34.36.05.06.1.11.15.17.14.15.26.31.39.47.15.2.3.4.44.61s.27.43.4.65c.12.2.22.4.33.6.05.11.1.22.15.33.07.12.13.25.18.38.55,1.32,1.84,2.19,3.28,2.19h8.95c1.42,0,2.69-.86,3.23-2.16,1.64-4.02,5.59-6.85,10.21-6.85,6.07,0,11,4.93,11,11Z" style="fill: #213970; stroke-width: 0px;"/>
      <text transform="translate(0 110.51)" style="fill: #bccccb; font-family: EurostileExt-Med, &apos;Eurostile Extd&apos;; font-size: 12.59px;"><tspan x="0" y="0" style="letter-spacing: .6em;">HO</tspan><tspan x="40.91" y="0" style="letter-spacing: .59em;">R</tspan><tspan x="60.74" y="0" style="letter-spacing: .6em;">U</tspan><tspan x="80.8" y="0" style="letter-spacing: .6em;">S</tspan></text>
    </g>
  </g>
</svg>